<svg version="1.1" xmlns="http://www.w3.org/2000/svg" viewBox="0 0 1139.6121526836737 499.6820068359375" width="1139.6121526836737" height="499.6820068359375">
  <!-- svg-source:excalidraw -->
  
  <defs>
    <style>
      @font-face {
        font-family: "Virgil";
        src: url("https://excalidraw.com/Virgil.woff2");
      }
      @font-face {
        font-family: "Cascadia";
        src: url("https://excalidraw.com/Cascadia.woff2");
      }
    </style>
  </defs>
  <g stroke-linecap="round" transform="translate(102.9374850332432 10) rotate(0 48.5 31.91089630126953)"><path d="M0.21 -0.08 C37.31 0.45, 72.41 0.76, 95.86 -1.05 M-0.47 -0.19 C29.7 -0.73, 60.81 0.34, 96.53 -0.69 M95.87 0.47 C95.87 19.37, 97.22 39.7, 97.12 65.82 M96.27 -0.4 C97 23.06, 98.46 43.45, 97.53 64.11 M96.86 62.8 C66.26 63.75, 38.55 65.19, 1.92 64.02 M97.51 63.23 C65.23 64.53, 34.13 63.77, 0.42 64.53 M1.44 64.59 C1.46 40.29, -0.68 13.55, -1.99 1.69 M0.93 64.23 C-0.61 47.01, -0.89 29.14, 0.38 0.64" stroke="#c92a2a" stroke-width="1" fill="none"></path></g><g stroke-linecap="round" transform="translate(102.89982634183696 94.62384033203125) rotate(0 48.5 31.91089630126953)"><path d="M1.92 0.19 C25.82 -0.54, 50.96 0.69, 95.82 -0.21 M0.42 0.71 C35.1 0.17, 68.08 0.95, 97.38 0.71 M95.01 1.69 C96.24 25.01, 96.58 52.5, 97.82 62.41 M97.38 0.64 C95.59 24.23, 96.53 46.02, 97 63.2 M96.23 65.18 C78.2 65.94, 59.67 64.52, 0.78 63.4 M97.53 64.61 C73.91 65.28, 49.95 64.46, -0.7 63.21 M0.62 63.5 C0.84 40.14, 0.22 13.84, -1.4 -1.33 M-0.68 63.92 C0.09 47.75, 0.47 31.01, 0.53 -0.76" stroke="#c92a2a" stroke-width="1" fill="none"></path></g><g stroke-linecap="round" transform="translate(101.49760466214946 186.41375732421875) rotate(0 48.5 31.91089630126953)"><path d="M0.24 0.99 C37.47 -1.41, 76.08 -1.99, 98.7 -0.23 M0.38 0.44 C30.55 -0.28, 60.26 -0.51, 96.63 -0.4 M96.67 1.42 C96.99 20.19, 97.63 35.89, 95.41 65.82 M97.45 0.04 C96.9 21.88, 98 41.08, 97.66 64.45 M98.2 64.06 C67.27 61.24, 39.56 61.74, -0.28 64.63 M96.08 63.35 C67.03 64.02, 35.95 64.34, -0.23 63.21 M0.42 62.44 C-0.92 38.04, 2.45 12, -1.83 1.11 M0.31 63.9 C-0.94 45, 0.15 25.73, -0.21 0.41" stroke="#c92a2a" stroke-width="1" fill="none"></path></g><g stroke-linecap="round" transform="translate(98.65739470121196 315.4608154296875) rotate(0 48.5 31.91089630126953)"><path d="M-1.36 -1.83 C23.13 -0.92, 44.95 -1.14, 97.62 0.15 M0.24 -0.21 C23.19 0.14, 45.45 0.28, 96.44 0.47 M97.13 -1.86 C96.28 25.14, 96.01 46.86, 95.35 63.28 M97.77 0.62 C96.86 24.97, 96.39 48.19, 96.52 64.79 M98.65 62.58 C74.14 62.98, 48.72 62.22, -1.3 65.5 M97.58 64.7 C59.44 64.4, 22.23 64.51, -0.49 64.7 M1.99 64.57 C1.29 42.3, 0.7 16.15, 1.31 -1.01 M0.28 63.2 C-0.17 44.09, -0.15 22.81, -0.2 0.59" stroke="#c92a2a" stroke-width="1" fill="none"></path></g><g transform="translate(142.95976286527446 267.1810607910156) rotate(89.77956669224425 8.5 12.5)"><text x="0" y="18" font-family="Virgil, Segoe UI Emoji" font-size="20px" fill="#000000" text-anchor="start" style="white-space: pre;" direction="ltr">...</text></g><g transform="translate(366.5429537832432 164.94268798828125) rotate(89.77956669224425 8.5 12.5)"><text x="0" y="18" font-family="Virgil, Segoe UI Emoji" font-size="20px" fill="#000000" text-anchor="start" style="white-space: pre;" direction="ltr">...</text></g><g transform="translate(525.5945895254307 211.20574951171875) rotate(359.5725346756585 8.5 12.5)"><text x="0" y="18" font-family="Virgil, Segoe UI Emoji" font-size="20px" fill="#000000" text-anchor="start" style="white-space: pre;" direction="ltr">...</text></g><g transform="translate(522.1730807363681 134.30120849609375) rotate(359.5725346756585 8.5 12.5)"><text x="0" y="18" font-family="Virgil, Segoe UI Emoji" font-size="20px" fill="#000000" text-anchor="start" style="white-space: pre;" direction="ltr">...</text></g><g stroke-linecap="round"><g transform="translate(231.9600680410557 49.585479736328125) rotate(0 27.722984948600583 16.31841251977255)"><path d="M0.11 0.77 C9.43 6.32, 47.49 27.14, 56.74 32.51 M-1.29 0.13 C7.87 5.37, 46.86 25.42, 56.18 30.57" stroke="#e67700" stroke-width="1" fill="none"></path></g><g transform="translate(231.9600680410557 49.585479736328125) rotate(0 27.722984948600583 16.31841251977255)"><path d="M27.75 27.63 C37.94 27.2, 49.62 30.9, 55.06 29.03 M25.62 27.29 C37.3 28.56, 49.82 29.61, 56.97 30.73" stroke="#e67700" stroke-width="1" fill="none"></path></g><g transform="translate(231.9600680410557 49.585479736328125) rotate(0 27.722984948600583 16.31841251977255)"><path d="M37.38 9.51 C43.92 15.74, 52.06 26.09, 55.06 29.03 M35.25 9.17 C43.29 17.37, 52.17 25.27, 56.97 30.73" stroke="#e67700" stroke-width="1" fill="none"></path></g></g><g stroke-linecap="round"><g transform="translate(451.6191890122335 105.65976601832233) rotate(0 22.48585787556209 15.004654110554782)"><path d="M0.67 -0.99 C8.29 3.8, 37.85 24.38, 45.41 29.5 M-0.44 1.11 C7.02 6.02, 36.67 25.99, 44.31 31" stroke="#e67700" stroke-width="1" fill="none"></path></g><g transform="translate(451.6191890122335 105.65976601832233) rotate(0 22.48585787556209 15.004654110554782)"><path d="M16.22 24.11 C25.04 26.72, 32.72 26.51, 45.92 30.35 M18.1 23.77 C26.85 26.43, 35.24 28.03, 43.96 31.54" stroke="#e67700" stroke-width="1" fill="none"></path></g><g transform="translate(451.6191890122335 105.65976601832233) rotate(0 22.48585787556209 15.004654110554782)"><path d="M26.53 8.61 C32.62 15.54, 37.47 19.58, 45.92 30.35 M28.41 8.27 C33.61 16.15, 38.54 22.94, 43.96 31.54" stroke="#e67700" stroke-width="1" fill="none"></path></g></g><g stroke-linecap="round"><g transform="translate(571.5610201894934 150.48464870900074) rotate(0 23.841009704866565 12.60247453598646)"><path d="M0.98 -1.09 C8.78 2.88, 40.21 20.54, 47.65 24.8 M0.03 0.96 C7.67 5.64, 39.17 22.19, 47.14 26.29" stroke="#e67700" stroke-width="1" fill="none"></path></g><g transform="translate(571.5610201894934 150.48464870900074) rotate(0 23.841009704866565 12.60247453598646)"><path d="M19.05 24.2 C30.48 21.89, 39.66 26.24, 46.18 25.35 M20.98 23.17 C26.58 23.27, 33.54 25.02, 48.09 25.76" stroke="#e67700" stroke-width="1" fill="none"></path></g><g transform="translate(571.5610201894934 150.48464870900074) rotate(0 23.841009704866565 12.60247453598646)"><path d="M27.44 8.12 C35.9 11.84, 41.97 22.15, 46.18 25.35 M29.37 7.09 C32.77 11.09, 37.67 16.79, 48.09 25.76" stroke="#e67700" stroke-width="1" fill="none"></path></g></g><g stroke-linecap="round"><g transform="translate(217.89396696683696 121.07647705078125) rotate(0 31.889426969736803 -0.34594525024294853)"><path d="M-0.71 0.65 C10.23 0.52, 53.76 -0.86, 64.49 -1.35 M1.12 -0.05 C11.99 0.08, 52.67 0.44, 63.49 0.23" stroke="#e67700" stroke-width="1" fill="none"></path></g><g transform="translate(217.89396696683696 121.07647705078125) rotate(0 31.889426969736803 -0.34594525024294853)"><path d="M36.42 10.43 C41.29 7.01, 45.6 5.1, 64.54 -0.88 M35.73 10.52 C44.8 7.36, 53.73 3.6, 64.03 0.28" stroke="#e67700" stroke-width="1" fill="none"></path></g><g transform="translate(217.89396696683696 121.07647705078125) rotate(0 31.889426969736803 -0.34594525024294853)"><path d="M36.35 -10.09 C41.13 -9.28, 45.46 -6.97, 64.54 -0.88 M35.66 -10 C44.67 -6.64, 53.63 -3.87, 64.03 0.28" stroke="#e67700" stroke-width="1" fill="none"></path></g></g><g stroke-linecap="round"><g transform="translate(843.501144701212 189.89794921875) rotate(0 32.56278009488244 -0.3872413441445701)"><path d="M0.72 -1 C11.2 -1.25, 52.85 -0.4, 63.4 -0.31 M-0.36 1.09 C10.43 1.04, 54.94 -1.29, 65.49 -1.86" stroke="#e67700" stroke-width="1" fill="none"></path></g><g transform="translate(843.501144701212 189.89794921875) rotate(0 32.56278009488244 -0.3872413441445701)"><path d="M36.2 7.88 C48.98 4.73, 58.09 0.3, 66.22 -0.76 M37.35 9.7 C45.21 6.9, 53.22 2.42, 64.84 -2.12" stroke="#e67700" stroke-width="1" fill="none"></path></g><g transform="translate(843.501144701212 189.89794921875) rotate(0 32.56278009488244 -0.3872413441445701)"><path d="M35.13 -12.61 C48.47 -8.79, 57.94 -6.25, 66.22 -0.76 M36.28 -10.79 C44.47 -7.98, 52.77 -6.84, 64.84 -2.12" stroke="#e67700" stroke-width="1" fill="none"></path></g></g><g stroke-linecap="round"><g transform="translate(220.1912692129307 234.11688232421875) rotate(0 32.011732839792955 -0.5192917697131634)"><path d="M-0.46 1.03 C10.45 0.71, 53.81 -1.7, 64.49 -2.07 M1.5 0.53 C12.33 0.36, 52.74 -0.83, 63.49 -0.88" stroke="#e67700" stroke-width="1" fill="none"></path></g><g transform="translate(220.1912692129307 234.11688232421875) rotate(0 32.011732839792955 -0.5192917697131634)"><path d="M37.21 9.73 C40.47 6.02, 47.99 6.22, 63.47 -0.09 M34.88 10.15 C42.19 6.64, 50.91 3.64, 62.85 -1.74" stroke="#e67700" stroke-width="1" fill="none"></path></g><g transform="translate(220.1912692129307 234.11688232421875) rotate(0 32.011732839792955 -0.5192917697131634)"><path d="M36.83 -10.78 C40.16 -10.04, 47.75 -5.39, 63.47 -0.09 M34.5 -10.36 C41.72 -8.41, 50.54 -5.95, 62.85 -1.74" stroke="#e67700" stroke-width="1" fill="none"></path></g></g><g stroke-linecap="round"><g transform="translate(219.41801481839946 337.6238098144531) rotate(0 32.75743430978156 -22.231906046555366)"><path d="M-1.08 0.23 C9.68 -6.81, 53.57 -35.64, 64.51 -42.77 M0.55 -0.69 C11.67 -8.05, 55.55 -37.37, 66.6 -44.69" stroke="#e67700" stroke-width="1" fill="none"></path></g><g transform="translate(219.41801481839946 337.6238098144531) rotate(0 32.75743430978156 -22.231906046555366)"><path d="M49.2 -22.49 C54.77 -29.36, 60.25 -33.71, 67.98 -44.93 M49.33 -19.65 C54.38 -26.94, 60.18 -35.23, 67.03 -44.93" stroke="#e67700" stroke-width="1" fill="none"></path></g><g transform="translate(219.41801481839946 337.6238098144531) rotate(0 32.75743430978156 -22.231906046555366)"><path d="M37.83 -39.57 C46.64 -41.34, 55.44 -40.71, 67.98 -44.93 M37.96 -36.73 C46.23 -38.98, 55.33 -42.32, 67.03 -44.93" stroke="#e67700" stroke-width="1" fill="none"></path></g></g><g stroke-linecap="round"><g transform="translate(448.04870170436936 246.25954118800541) rotate(0 26.575912445665267 -10.055597873400899)"><path d="M-0.11 0.11 C9.17 -2.91, 45.68 -15.19, 54.77 -18.48 M-1.62 -0.88 C7.56 -4.21, 44.59 -17.27, 53.77 -20.22" stroke="#e67700" stroke-width="1" fill="none"></path></g><g transform="translate(448.04870170436936 246.25954118800541) rotate(0 26.575912445665267 -10.055597873400899)"><path d="M31.28 -2.18 C37.55 -6.81, 40.73 -9.09, 54.85 -19.11 M31.95 -1.04 C37.37 -6.01, 41.28 -11.79, 53.54 -20.6" stroke="#e67700" stroke-width="1" fill="none"></path></g><g transform="translate(448.04870170436936 246.25954118800541) rotate(0 26.575912445665267 -10.055597873400899)"><path d="M24.89 -21.01 C32.54 -21.36, 37.18 -19.36, 54.85 -19.11 M25.56 -19.87 C32.35 -20.37, 37.79 -21.63, 53.54 -20.6" stroke="#e67700" stroke-width="1" fill="none"></path></g></g><g stroke-linecap="round"><g transform="translate(563.8270114004307 227.35552978515625) rotate(0 25.159864703109406 -9.534462954839682)"><path d="M0.69 -0.65 C8.94 -4.27, 42.14 -17.24, 50.73 -20.69 M-0.41 1.62 C7.54 -1.9, 40.79 -15.62, 49.51 -19.31" stroke="#e67700" stroke-width="1" fill="none"></path></g><g transform="translate(563.8270114004307 227.35552978515625) rotate(0 25.159864703109406 -9.534462954839682)"><path d="M28.16 -1.47 C36.68 -6.61, 43.67 -14.44, 49.79 -18 M29.59 -1.25 C34.26 -4.19, 37.93 -7.52, 49.59 -19.49" stroke="#e67700" stroke-width="1" fill="none"></path></g><g transform="translate(563.8270114004307 227.35552978515625) rotate(0 25.159864703109406 -9.534462954839682)"><path d="M20.89 -18.87 C32.46 -17.1, 42.36 -17.98, 49.79 -18 M22.32 -18.66 C28.4 -18, 33.57 -17.75, 49.59 -19.49" stroke="#e67700" stroke-width="1" fill="none"></path></g></g><g transform="translate(107.9374850332432 29.41089630126953) rotate(0 43.5 12.5)"><text x="43.5" y="18" font-family="Virgil, Segoe UI Emoji" font-size="20px" fill="#c92a2a" text-anchor="middle" style="white-space: pre;" direction="ltr">RAW</text></g><g transform="translate(107.89982634183696 114.03473663330078) rotate(0 43.5 12.5)"><text x="43.5" y="18" font-family="Virgil, Segoe UI Emoji" font-size="20px" fill="#c92a2a" text-anchor="middle" style="white-space: pre;" direction="ltr">RAW</text></g><g transform="translate(106.49760466214946 205.82465362548828) rotate(0 43.5 12.5)"><text x="43.5" y="18" font-family="Virgil, Segoe UI Emoji" font-size="20px" fill="#c92a2a" text-anchor="middle" style="white-space: pre;" direction="ltr">RAW</text></g><g transform="translate(103.65739470121196 334.87171173095703) rotate(0 43.5 12.5)"><text x="43.5" y="18" font-family="Virgil, Segoe UI Emoji" font-size="20px" fill="#c92a2a" text-anchor="middle" style="white-space: pre;" direction="ltr">RAW</text></g><g stroke-linecap="round" transform="translate(300.0693209707432 79.02471923828125) rotate(0 72 33.5)"><path d="M0 0 C0 0, 0 0, 0 0 M0 0 C0 0, 0 0, 0 0 M-0.72 6.89 C1.25 5.33, 2.64 2.58, 4.75 0.59 M-0.66 6.53 C1.97 4.23, 3.22 2.37, 5.36 0.31 M-1.3 12.26 C3.85 10.39, 5.58 6.26, 10.53 0.3 M-0.25 12.74 C2.81 8.88, 4.96 6.77, 11.13 -0.72 M-0.99 20.17 C4.53 12.72, 13.37 4.12, 16.28 0.18 M-0.25 18.52 C4.37 14.84, 7.23 9.02, 15.66 0.1 M-0.53 24.21 C4.17 15.65, 11.12 11.35, 21.07 -0.86 M1.18 23.87 C6.12 18.28, 10.61 12.45, 20.27 0.91 M1.91 32.35 C6.23 22.67, 14.03 15.86, 27.68 0.89 M0.92 31.39 C10.33 18.48, 18.99 8.03, 25.97 -0.61 M-0.44 36.94 C13.73 24.43, 23.41 9.15, 30.75 -1.39 M-1.14 35.93 C9.9 26.12, 17.97 15.69, 32.14 -0.86 M1.86 43.97 C8.07 32.36, 17.42 25.27, 38.61 -0.02 M-0.75 42.54 C7.97 33.19, 16.26 23.17, 36.86 1.02 M-0.36 50.15 C16.63 32.88, 31.74 14.56, 41.68 0.03 M0.16 48.36 C15.21 32.03, 31.25 13.38, 41.56 0.77 M0.77 56.54 C15.89 37.9, 31.16 21.08, 46.35 2.03 M-0.45 54.82 C14.54 37.67, 29.33 20.06, 47.22 0.54 M0.11 61.45 C10.77 46.02, 23.48 31.21, 51.32 -1.65 M-0.58 61.33 C14.72 44.05, 27.81 28.29, 53.08 0.44 M-0.83 66.01 C12.57 53.82, 25.37 36.66, 57.51 -0.66 M-0.14 67.49 C17.16 46.87, 35.93 27.17, 58.77 0.15 M4.58 65.31 C24.18 43.1, 44.18 21.63, 64.43 -1.81 M5.74 66.91 C26.33 43.92, 46.45 19.51, 63.08 0.44 M9.41 67.64 C31.64 40.16, 54.37 15.42, 68.03 -0.15 M10.48 67.14 C34.57 40.72, 55.84 14.58, 68.07 0.74 M16.72 65.97 C34.6 50.66, 49.28 29.72, 73.09 -2.14 M15.8 67.83 C36.11 41.91, 58.09 16.45, 73.8 0.71 M20.14 68.85 C42.24 41.5, 66.59 17.35, 79.12 -0.76 M20.63 66.4 C42.28 41.1, 64.55 17.78, 78.52 -0.18 M28.27 65.35 C46.88 42.72, 68.31 21.15, 84.7 1.36 M25.88 67.53 C49.64 42.53, 71.77 15.81, 85.32 -1.14 M30.52 65.88 C48.91 47.78, 64.47 29.43, 89.36 0.84 M32.52 66.77 C55.68 40.94, 78.31 13.8, 90.37 -0.43 M37.52 67.07 C56.2 48.39, 73.94 25.42, 93.96 -1.62 M36.35 66.06 C53.7 47.24, 69.45 28.95, 95.57 0.14 M42.99 68.66 C55.29 51.07, 68.54 37.1, 102.58 -0.32 M42.17 67.37 C64.11 41.2, 86.58 14.44, 100.73 0.82 M48.09 66.39 C61.09 52.17, 74.64 35.63, 106.88 0.29 M48.45 66.14 C62.59 51.06, 77.11 33.9, 106.29 -0.54 M51.33 68.83 C68.48 50.94, 86 31.1, 111.97 -1.52 M53.5 66.99 C65.84 53.75, 78.75 37.73, 111.51 -0.92 M56.91 66.28 C74.5 51.33, 86.23 32.87, 116.14 0.9 M58.22 67.14 C76.47 45.79, 95.56 23.75, 116.46 0.17 M64.61 67.68 C80.4 50.54, 96.11 31.48, 120.01 -0.35 M64.22 68.08 C83.1 44.41, 102.22 22.66, 121.51 0.49 M70.2 65.41 C83.53 51.91, 96.61 34.88, 127.69 1.47 M68.57 67.06 C79.97 52.71, 92.24 39.75, 126.82 0.96 M75.23 68.22 C88.73 47.14, 106.85 32.74, 134.5 1.28 M73.93 66.73 C95.72 43.65, 116.26 19.89, 132.35 -0.14 M79.51 66.1 C94.4 51.68, 108.99 33.4, 136.83 -0.83 M79.26 66.61 C94.29 49.32, 110.13 30.65, 138.03 0.48 M82.89 67.14 C104.98 45.25, 122.94 25, 144.55 1.15 M84.03 66.72 C99.78 50.48, 114.73 33.09, 142.49 0.64 M89.7 66.4 C106.13 46.07, 124.04 25.42, 144.86 2.39 M90.87 67.11 C109.86 43.07, 131.04 20.31, 145.25 2.53 M94.6 66.81 C104.27 53.75, 118.75 43.65, 145.36 9.02 M95.8 67.45 C116.2 45.13, 135.91 22.77, 146.04 7.26 M102.95 68.02 C114.05 51.07, 130.96 34.26, 147.8 14.5 M100.85 66.56 C117.02 47.86, 135.58 27.82, 146.92 13.86 M104.7 67.29 C123.13 48.28, 135.41 31.59, 148.61 21.53 M106.34 68 C115.75 55.33, 126.87 44.33, 147.09 19.95 M110.09 69.12 C119.35 59.05, 128.12 49.75, 148.06 27.19 M110.82 68.36 C121.11 54.82, 132.44 44.67, 146.37 27.51 M114.82 66.33 C126.43 55.23, 138.21 41.62, 145.97 32.51 M116.6 67.08 C125.43 56.38, 135.9 44.51, 145.25 33.15 M121.22 69.28 C128.52 58.89, 134.52 50.74, 146.86 39.63 M121.21 68.3 C129.65 58.31, 138.38 48.89, 146.29 37.98 M125.92 67.37 C133.63 57.27, 141.72 51.22, 145.11 44.96 M127.39 67.09 C133.04 61.9, 136.56 55.46, 145.68 45.41 M133.8 66.04 C134.61 62.62, 139.84 61.12, 148.7 48.71 M131.34 67.1 C137.25 60.3, 142.4 55.12, 147.2 51.44 M138.16 67.31 C140.46 63.83, 142.45 61.04, 145.55 56.29 M137.55 66.36 C140.43 63.88, 142.79 61.94, 146.44 56.54 M143.01 67.42 C143.99 66.1, 144.37 65.68, 145.85 63.05 M142.7 67.3 C143.81 66.53, 144.17 65.5, 146.35 63.74" stroke="#ced4da" stroke-width="0.5" fill="none"></path><path d="M-0.81 0.97 C54.8 1.3, 113.93 -1.1, 143 1.14 M-0.74 0.3 C37.71 -0.81, 73.67 -2.22, 143.16 -0.74 M144 0.34 C142.95 16.45, 143.73 28.97, 142.15 68.23 M143.08 -0.43 C143.55 24.71, 145.18 49.96, 144.51 67.08 M142.66 65.63 C95.33 69.43, 45.47 68.71, 1.33 67.42 M144.74 67.26 C109.76 67.3, 76.29 68.4, 0.79 66.12 M1.8 65.25 C-1.12 51.32, -0.66 32, -0.97 1.54 M-0.82 67.12 C0.27 45.58, 0.01 24.22, -0.79 -0.82" stroke="#1864ab" stroke-width="1" fill="none"></path></g><g stroke-linecap="round" transform="translate(304.3325045644932 206.00607299804688) rotate(0 69.5 33.5)"><path d="M0 0 C0 0, 0 0, 0 0 M0 0 C0 0, 0 0, 0 0 M0.48 6.45 C1.03 4.63, 2.36 1.94, 4.94 0.43 M-0.12 6.52 C1.65 4.59, 3.17 2.95, 5.13 0.37 M0.52 11.05 C3.65 11.14, 3.7 7.26, 10.76 0.96 M-0.26 12.81 C4.73 8.22, 8.48 2.31, 10.57 -0.38 M-1.6 19.1 C4.13 13.46, 10.36 9.89, 15.1 0.22 M-0.25 18.53 C2.93 13.1, 8.25 9.84, 14.81 1.02 M-0.32 24.57 C9 17.87, 14.2 7.38, 23 0.51 M0.63 24.51 C7.52 14.94, 16.36 5.78, 21.24 -0.51 M0.5 31.26 C7.36 22.54, 16.78 14.29, 27.17 1.83 M-0.7 30.34 C7.03 21.98, 13.27 15.32, 26.82 -0.27 M-0.02 35.64 C6.46 31.24, 12.84 22.43, 32.11 1.47 M-0.26 37.77 C6.47 28.14, 14.25 19.69, 30.99 0.27 M1.45 43.82 C10.08 31.78, 18.77 19.43, 36.05 -0.73 M0.23 42.82 C7.52 34.2, 16.1 24.86, 35.9 0.93 M1.58 48.64 C11.48 33.56, 25.2 21.58, 43.27 -1.65 M-1.06 49.55 C11.65 35.88, 22.25 22.6, 43.03 0.36 M2.15 55.28 C16.64 32.92, 33.61 14.69, 46.04 2.12 M-0.13 54.34 C16.76 36.21, 32.33 18.54, 47.42 -0.34 M-0.13 62.17 C10.86 46.81, 23.18 31.03, 52.94 -0.93 M-0.92 61.52 C14.18 44.22, 28.81 28.3, 52.38 -0.12 M-1.85 66.58 C13.49 51.08, 28.23 38.56, 58.76 -0.32 M0.73 67.64 C13.83 52.13, 26.84 35.53, 57.61 -0.36 M5.46 67.73 C17.85 51.99, 31.69 34.39, 64.88 1.27 M5.76 67.24 C22.03 46.42, 38.83 27.13, 63.95 0.63 M8.77 66.02 C24.59 51.24, 34.68 37.41, 69.13 0.91 M9.64 66.81 C25.58 48.51, 43.43 29.43, 69.53 -0.77 M17.01 66.53 C34.66 43.58, 55.85 22.52, 74.17 0.25 M16.15 66.95 C32.2 47.97, 47.65 31.12, 74.47 0.05 M21.69 65.98 C41.14 45.02, 62.13 23.56, 81.37 -1.54 M20.3 68.01 C33.03 52.25, 46.41 37.87, 79.07 -0.53 M25.27 65.52 C43.98 49.26, 58.89 27.72, 83.19 1.02 M27.04 67.59 C49.81 39.93, 72.58 13.51, 84.51 -0.76 M31.05 67.7 C49.21 46.59, 66.17 27.72, 89.04 0.67 M31.42 68.2 C51.16 44.83, 70.32 24.36, 90.99 0.03 M35.53 65.29 C53.31 48.63, 72.08 27.74, 97.67 -1.75 M37.31 66.71 C57.9 44.72, 77.24 23.37, 96.49 -1.04 M42.3 66.14 C60.08 45.33, 81.82 25.31, 99.01 -0.42 M41.54 68.02 C58.89 47.79, 75.62 28.09, 100.89 -0.76 M46.4 66.11 C67.71 46.15, 85.68 25.71, 106.6 0.33 M48.66 66.53 C60.66 53.82, 72.58 38.57, 106.69 -0.37 M52.22 65.91 C68.71 48.81, 83.42 33.1, 111.43 -1.09 M53.06 67.77 C71.73 45.28, 91.41 21.86, 111.2 0.1 M57.82 67.97 C76.05 48.72, 90.62 26.46, 117.67 2.07 M57.68 65.91 C80.82 39.7, 104.35 13.42, 116.55 0.08 M64.87 65.33 C79.64 48.07, 97.46 30.27, 123.81 -1.95 M64.2 67.38 C78.83 49.41, 94.02 32.58, 121.2 0.27 M71 66.5 C87.34 43.46, 111.31 20.03, 127.83 1.71 M69.75 66.37 C89.27 42.18, 111.73 18.45, 127.34 0.51 M75.66 68.38 C86.46 51.16, 99.04 36.17, 130.93 0.11 M75.05 66.46 C88.27 51.5, 101.09 34.84, 133.01 0.03 M80.5 65.06 C90.87 53.33, 101.78 38.66, 139.38 1.44 M79.13 66.1 C93.66 50.8, 107.72 35.01, 138.2 1.07 M83.28 68.77 C101.1 52.5, 111.75 36.01, 142.94 2.12 M85.52 66.26 C105.67 42.3, 126.05 18.82, 141.64 2.63 M90.19 66.68 C107.85 45.45, 129.14 23.09, 140.01 7.93 M90.92 65.93 C110.51 44.71, 130.1 20.29, 142.21 8.34 M93.76 65.86 C110.04 51.42, 126.7 32.24, 142.69 14.1 M95.38 67.71 C112.49 48.02, 130.02 26.38, 142.34 15.21 M101.22 66.07 C110.43 52.37, 123.04 40.07, 141.29 19.73 M101.04 67.36 C112.64 53.36, 123.26 40.79, 140.82 20.76 M104.41 68.71 C112.79 60.78, 120.78 49.55, 141.46 24.4 M106.25 67.37 C116.48 55.15, 128.08 41.67, 142.29 26.26 M111.44 66.39 C118.03 58.21, 126.75 46.88, 141.35 33.31 M111.63 67.28 C118.34 59.35, 126.33 51.59, 140.61 32.64 M115.89 68.08 C123.93 59.23, 127.63 52.49, 143.3 38.86 M117.56 67.47 C125.94 55.16, 136.5 43.26, 140.99 38.69 M121.96 68.23 C128.66 60.06, 134.75 51.85, 139.74 45.59 M121.62 67 C125.72 61.4, 131.29 56.21, 142.09 44.74 M128.15 68.4 C131.84 62.95, 136.9 56.57, 140.9 51.76 M126.63 67.9 C129.67 63.56, 134.25 60.35, 140.12 50.85 M132.94 66.48 C134.69 62.74, 138.33 60.31, 140.42 57.94 M132.67 66.9 C135.39 64.64, 137.82 61.27, 142.04 56.73 M137.57 67.13 C139.25 65.55, 140.52 64.53, 141.48 63.05 M138.1 66.73 C138.91 65.36, 140.33 64.05, 141.46 63.22" stroke="#ced4da" stroke-width="0.5" fill="none"></path><path d="M-0.54 -1.47 C54.42 -1.22, 103.95 2.37, 138.16 0.05 M-0.24 -0.36 C34.17 -0.21, 70.09 -0.05, 138.85 0.62 M137.56 -0.96 C136.84 13.82, 138.1 29.29, 139.77 68.3 M139.3 0.16 C138.21 21.01, 139.49 41.81, 139.38 67.64 M138.97 65.71 C93.17 68.05, 49.63 68.37, -0.27 66.01 M138.76 66.2 C100.36 68.04, 64.63 67.49, -0.54 67.43 M0.18 67.07 C-1.71 40.88, 1.54 15.84, 0.42 0.15 M-0.9 66.45 C-0.62 48.2, 0.29 26.82, 0.36 -0.29" stroke="#1864ab" stroke-width="1" fill="none"></path></g><g stroke-linecap="round" transform="translate(640.0650485098057 162.65460205078125) rotate(0 90.5 30)"><path d="M0 0 C0 0, 0 0, 0 0 M0 0 C0 0, 0 0, 0 0 M0.39 5.86 C0.48 5.15, 1.8 2.6, 4.36 0.83 M-0.02 6.74 C1.4 4.31, 3.09 3.05, 5.1 0.02 M1.25 11.48 C4.22 6.88, 9.6 3.77, 11.62 1.16 M-0.19 11.45 C3.83 7.91, 7.45 3.63, 10.64 0.64 M1.03 20.42 C2.75 14.91, 6.97 8.92, 17.28 -0.53 M-1.12 19.31 C5.52 11.97, 9.18 8.36, 15.06 0.01 M-1.72 24.69 C6.67 15.38, 14.36 7.13, 21.52 1.2 M0.71 24.22 C8.03 14.19, 16.32 5.79, 21.04 0.64 M1.54 32.29 C10.03 17.93, 17.41 9.51, 26.19 0.16 M-0.65 30.09 C10.61 18.13, 19.68 8.27, 26.32 0.29 M0.43 36.9 C11.23 22.18, 25.62 9.83, 32.75 -1.23 M0.24 36.28 C8.85 26.34, 19.29 14.64, 32.66 0.03 M-1.25 43.17 C9.8 30.19, 24.48 16.32, 36.11 1.55 M-0.3 43.12 C8.16 32.17, 17.26 23.07, 36.19 -0.11 M-0.53 48.11 C9.57 34.98, 23.28 21.63, 40.83 0.23 M0.62 49.65 C11.89 36.66, 22.6 23.06, 42.2 0.23 M0.17 54.9 C11.65 40.8, 21.56 31.23, 46.66 -1.13 M0.51 53.76 C16.5 36.33, 32.48 16.16, 47.46 -0.78 M-0.71 61.33 C13.31 41.71, 29.19 27.38, 52.74 -1.02 M0.54 60.87 C19.03 38.31, 37.28 15.76, 53.03 0.29 M6.28 58.58 C22.19 37.88, 40.76 19.64, 59.15 0.66 M6.27 61.16 C24.18 39.1, 44.4 17.27, 58.57 -0.46 M10.64 58.27 C28.65 41.92, 43.94 21.41, 63.12 -0.28 M11.48 60.75 C32.7 35.67, 52.28 12.25, 63.17 -0.84 M15.98 58.67 C29.58 41.86, 48.07 27.36, 68.58 0.79 M16.87 60.38 C35.25 38.47, 54.87 16.19, 69.63 0.93 M22.91 59.87 C40.74 35.81, 63.5 13.31, 74.33 -1.54 M21.6 60.82 C33.99 45.41, 46.56 31.77, 75.3 -0.41 M26.61 60.96 C39.06 46.15, 54.03 29.33, 79.64 -1.57 M27.63 60.35 C46.06 38.71, 65.66 16.97, 80.39 0.33 M33.04 61.06 C50.65 41.05, 64.09 23.32, 84.39 -1.45 M32.52 60.14 C44.19 47.58, 55.15 33.55, 84.76 0.19 M36.47 60.54 C58.14 37.76, 78.4 11.55, 90.69 2.06 M37.76 59.79 C58.24 38.49, 78.18 14.06, 90.26 -0.47 M43.66 62.06 C53.19 44.68, 67.58 31.03, 95.02 -1.38 M43.54 60.63 C54.94 47.18, 65.42 35.93, 95.54 -0.58 M47.5 59.79 C62.15 43.81, 73.52 32.42, 101.81 1.49 M49.12 61.29 C59.15 45.87, 73.3 31.33, 100.33 -0.86 M54.43 61.19 C69.96 42.86, 84.25 22.92, 107.63 0.62 M52.93 61.78 C69.04 41.55, 85.99 23.17, 106.29 -0.44 M57.37 60.43 C72.75 45.25, 86.69 27.87, 110.74 -0.19 M58.23 61.27 C74.71 42.14, 92.06 23.61, 111.31 0.63 M64.65 59.79 C84.7 37.02, 106.22 13.86, 114.64 -1.43 M64.63 61.69 C80.93 40.61, 98.75 21.12, 115.66 -0.48 M71.43 59.47 C87.84 39.13, 106.18 18.25, 120.92 1.47 M70.29 59.98 C89.17 37.1, 108.56 14.4, 121.59 0.33 M73.36 58.79 C96.87 37, 115.93 11.82, 126.17 -0.45 M74.22 61.53 C92.3 38.99, 112 16.74, 126.93 -0.22 M78.69 61.24 C94.71 42.81, 109.85 24.27, 133.47 0.18 M79.11 59.56 C91.81 48, 102.12 36.59, 133.21 -0.62 M85.92 59.67 C99.77 41.4, 114.35 24.45, 138 0.2 M85.63 60.6 C106.08 37.31, 125.38 13.92, 138.05 0.9 M91.89 61.38 C105.43 40.33, 121.52 25.26, 143.2 -0.99 M91.21 59.93 C107.77 42.09, 124.05 22.71, 143.87 -0.22 M97.41 61.24 C115.06 40.9, 130.9 21.22, 146.31 -0.27 M96.42 61.01 C109.18 45.94, 121.64 30.04, 148.3 0.57 M99.42 58.84 C115.34 42, 129.97 22.98, 154.61 -1.7 M101.72 60.91 C113.92 45.38, 127.11 30.37, 152.91 0.37 M104.57 59.6 C116.49 46.11, 129.09 33.81, 158.94 0.64 M105.82 59.74 C123.01 42.87, 138.48 23.86, 159.6 0.3 M113.38 59.89 C134.86 37.11, 153.79 14.14, 165.89 -0.27 M112.45 60.12 C128.19 40.93, 143.27 23.88, 165.35 -1.15 M117.84 60.18 C136.17 38.77, 151.7 18.84, 171.41 0.78 M116.71 60.6 C137.37 38.11, 155.9 14.27, 168.55 -0.56 M121.54 62.11 C137.19 40.03, 153.49 24.78, 176.91 -1.7 M121.86 61.06 C144.54 35.3, 163.73 11.13, 175.85 -0.26 M129.33 61.71 C142.61 41.49, 161.36 20.12, 178.94 1.28 M127.64 60.24 C146.77 37.65, 168.06 14.06, 180.39 -0.79 M131.38 58.4 C147.89 44.73, 161.17 28.96, 183.27 0.55 M133.08 61.06 C152.79 36.42, 172.98 14.23, 182.75 2.69 M136.87 60.23 C151.41 47.65, 164.25 32.43, 185.22 6.9 M138.8 60.16 C151.42 44.67, 165.99 27.71, 183.8 8.94 M142.06 60.95 C152.54 46.66, 165.31 35.92, 185.66 15.65 M143.87 59.27 C158.31 44.86, 172.34 27.33, 183.49 13.45 M147.95 61.12 C160.21 47.3, 175.51 31.54, 184.78 20.87 M148.04 60.7 C157.41 51.23, 166.62 41.18, 183.28 21 M156.4 61.28 C162.17 47.4, 174.88 37.81, 184.87 25.46 M154.66 60.73 C163.48 48.83, 173.5 38.25, 183.56 26.04 M159.76 59.04 C165.12 52.99, 170.11 45.47, 183.19 34.51 M158.88 61.06 C169.08 50.27, 176.53 40.2, 183.3 32.36 M164.95 58.22 C173.46 51.91, 176.71 46.2, 184.86 40.71 M164.54 60.28 C171.29 52.77, 178.68 43.89, 183.57 38.84 M171.16 61.98 C173.41 55.84, 182.28 48.79, 182.4 46.2 M170.46 61.27 C174.63 56.12, 177.87 50.41, 183.75 43.58 M173.9 62.01 C178.62 56.94, 180.92 55.7, 184.69 51.44 M174.77 61.17 C177.02 58.22, 179.62 55.44, 183.74 51.23" stroke="#ced4da" stroke-width="0.5" fill="none"></path><path d="M-0.66 -1.12 C57.1 2.09, 113.34 1.78, 181.14 1.95 M-0.98 0.71 C42.13 0.78, 84.88 1.29, 181.66 -0.04 M181.16 0 C179.66 20.09, 180.53 40.71, 182.91 60.44 M180.18 0.2 C180.2 23.04, 180.63 47.24, 181.14 59.32 M179.03 58.83 C127.11 61.07, 70.94 61.39, 1.24 59.63 M180.75 60.12 C135.81 60.25, 90.17 59.54, 0.51 60.1 M-1.22 60.62 C-1.57 46.61, -0.72 32.52, -1.95 1.38 M0.86 59.92 C-1.48 46.34, -0.58 33.48, -0.87 -0.36" stroke="#343a40" stroke-width="1" fill="none"></path></g><g transform="translate(645.0650485098057 180.15460205078125) rotate(0 85.5 12.5)"><text x="85.5" y="18" font-family="Virgil, Segoe UI Emoji" font-size="20px" fill="#343a40" text-anchor="middle" style="white-space: pre;" direction="ltr">Finished product</text></g><g transform="translate(305.0693209707432 100.02471923828125) rotate(0 67 12.5)"><text x="67" y="18" font-family="Virgil, Segoe UI Emoji" font-size="20px" fill="#1864ab" text-anchor="middle" style="white-space: pre;" direction="ltr">Intermediate</text></g><g transform="translate(309.3325045644932 227.00607299804688) rotate(0 64.5 12.5)"><text x="64.5" y="18" font-family="Virgil, Segoe UI Emoji" font-size="20px" fill="#1864ab" text-anchor="middle" style="white-space: pre;" direction="ltr">Intermediate</text></g><g stroke-linecap="round" transform="translate(931.1585543691807 165.42398071289062) rotate(0 55.61346435546875 26.966217041015625)"><path d="M0 0 C0 0, 0 0, 0 0 M0 0 C0 0, 0 0, 0 0 M0.16 6.22 C1.54 4.71, 1.8 3.21, 5.11 1.14 M-0.54 6.23 C0.46 5.42, 2.03 3.84, 5.19 0.1 M-0.21 12.22 C2.49 9.39, 4.35 6.61, 9.64 0.49 M-0.46 11.26 C4.24 8.07, 7.8 3.21, 10 -0.41 M-1.69 20.43 C4.43 10.3, 13.62 4.95, 17.56 0.85 M-0.52 18.51 C4.53 13.13, 10.39 5.74, 15.15 -0.06 M1.02 24.36 C3.89 18.38, 10.47 14.35, 20.64 -0.83 M0.54 23.26 C5.49 17.99, 8.93 13.44, 20.67 0.05 M1.06 30.72 C5.81 25.98, 12.52 16.78, 28.17 0.6 M-0.56 30.84 C6.27 22.19, 14.14 15.21, 25.42 0.43 M0.01 36.73 C9.11 23.07, 22.77 11.43, 32.6 0.1 M-1.12 37.6 C8.52 27.04, 17.16 15.97, 30.93 0.61 M0.64 43.57 C10.43 33.52, 16.78 24.54, 38.8 -0.28 M0.98 42.36 C10.89 29.63, 21.68 17.43, 37.58 0.62 M-0.1 49.78 C16.22 30.46, 28.86 16.49, 44.3 1.72 M0.86 48.14 C12.41 34.58, 25.56 18.2, 43.44 0.29 M0.32 53.07 C16.03 35.92, 33.77 17.86, 48.82 1.69 M0.81 54.3 C14.65 37.17, 29.03 20.51, 46.54 0.8 M5.58 52.72 C21.73 37.16, 37.05 19.03, 54.46 1.68 M6.52 53.24 C23.55 33.33, 42.46 12.36, 53.7 0.04 M9.58 52.53 C21.3 41.22, 30.14 32.01, 59.29 -0.69 M10.81 53.67 C26.25 35.62, 43.21 16.92, 58.86 0.1 M17.04 55.6 C27.49 40.89, 37.15 29.75, 65.49 0.93 M16.98 53.67 C31.07 37.63, 45.51 19.68, 63.87 0.66 M20.56 54.74 C34.37 39.66, 49.13 23.16, 68.96 -1.3 M22.49 55.46 C33.76 41.19, 44.61 26.94, 68.79 0.48 M28.7 53.57 C36.83 40.59, 48.4 30.57, 75.48 -0.26 M27.77 54.79 C42.16 37.41, 57.61 20.09, 74.74 -1.22 M31.62 55.7 C50.72 34.54, 70.99 11.75, 78.27 -0.73 M32.54 54.43 C43.67 42.07, 54 30.67, 80.19 0.75 M37.23 53.8 C57.48 34.74, 76.49 10.07, 86.2 1.69 M38.64 53.56 C54.94 35.2, 71.32 15.86, 85.77 -1.11 M44.78 54.75 C55.61 37.91, 70.13 22.8, 89.35 1.76 M42.3 55.21 C58.13 37.8, 72.65 20.23, 90.61 0.56 M49 52.77 C59.72 40.2, 70.37 26.27, 95.14 1.67 M49 53.74 C61.11 39.71, 72.28 26.71, 95.09 -0.68 M53.75 54.53 C65.17 39.16, 80.54 25.97, 101.99 0.22 M53.75 54.23 C66.96 39.86, 80.27 24.41, 101.24 0.43 M60.1 52.29 C78.81 31.41, 96.38 10.85, 107.43 -2.11 M59.92 53.96 C74.62 36.18, 88.32 19.61, 105.47 0.24 M63.96 53 C76.25 37.22, 90.41 22.04, 109.71 2.01 M63.55 53.8 C79.97 38.33, 93.76 20.72, 110.94 -0.31 M67.59 56.21 C79.27 42.27, 93.11 28.19, 110.03 6.65 M69.48 54.45 C83.08 38.58, 97.73 21.32, 110.43 6.46 M76.48 55.41 C89.96 39.67, 102.05 22.05, 113.19 11.87 M75 54.06 C87.54 38, 101.48 22.56, 111.72 12.6 M80.24 55.45 C86.37 48.5, 93 40.88, 112.77 19.27 M79.37 54 C85.36 47.65, 91.07 39.15, 111.38 18.32 M84.1 54.36 C94.31 43.79, 107.24 28.6, 111.81 23.72 M86.06 54.98 C95.3 42.44, 106.52 29.7, 112.23 24.12 M90.51 56.51 C93.82 48.17, 98.52 42.81, 112.46 30.61 M90.97 54.54 C95.11 47.98, 100.65 42.62, 111.64 30.25 M95.28 53.72 C100.4 48.06, 105.52 43.9, 111.46 37.61 M95.35 54.41 C100.65 47.99, 105.63 42.96, 111.65 36.87 M101.16 54.46 C103.5 50.14, 108.87 45.79, 112.69 43.81 M100.18 54.16 C105.11 50.76, 108.67 46.49, 110.78 41.94 M106.44 53.69 C108.13 53.09, 109.34 50.33, 110.66 48.83 M106.42 54.14 C108.19 52.86, 109.05 51.17, 111.03 48.63" stroke="#ced4da" stroke-width="0.5" fill="none"></path><path d="M-0.14 1.66 C36.29 -0.36, 69.77 1.46, 109.42 1.49 M0.82 -0.08 C44.02 1.12, 87.09 1.68, 111.85 0.38 M109.28 -0.44 C109.26 13.98, 109.04 32.44, 112.9 52.15 M111.6 -0.33 C112.09 20.62, 110.88 41.53, 110.82 54.07 M112.06 55.49 C74.89 54.32, 40.45 53.02, 1.98 55.76 M111.75 54.78 C74.84 53.75, 39.75 53.79, -0.99 53.09 M1 55.38 C1.19 36.29, -1.43 21.21, 0.98 -0.31 M-0.85 53.29 C1.28 33.29, 1.16 11.83, 0.51 0.78" stroke="#5f3dc4" stroke-width="1" fill="none"></path></g><g transform="translate(936.1585543691807 179.89019775390625) rotate(0 50.5 12.5)"><text x="50.5" y="18" font-family="Virgil, Segoe UI Emoji" font-size="20px" fill="#5f3dc4" text-anchor="middle" style="white-space: pre;" direction="ltr">SKU</text></g><g stroke-linecap="round"><g transform="translate(160.2853854238682 416.138427734375) rotate(0 345.0295056602639 0.35472854805180987)"><path d="M0.93 -0.61 C115.67 -0.53, 573.3 0.93, 687.89 0.99 M-0.04 1.68 C115.12 1.34, 575.51 -0.78, 690.1 -0.97" stroke="#2b8a3e" stroke-width="1" fill="none"></path></g><g transform="translate(160.2853854238682 416.138427734375) rotate(0 345.0295056602639 0.35472854805180987)"><path d="M660.93 7.79 C669.54 5.91, 674.57 4.86, 691.15 0.08 M661.67 8.76 C669.81 7.59, 676.51 4.1, 690.69 -1.66" stroke="#2b8a3e" stroke-width="1" fill="none"></path></g><g transform="translate(160.2853854238682 416.138427734375) rotate(0 345.0295056602639 0.35472854805180987)"><path d="M660.86 -12.73 C669.58 -9.41, 674.63 -5.26, 691.15 0.08 M661.6 -11.76 C669.94 -7.24, 676.66 -5.04, 690.69 -1.66" stroke="#2b8a3e" stroke-width="1" fill="none"></path></g></g><g stroke-linecap="round"><g transform="translate(172.2708590566807 406.3924560546875) rotate(0 0.5126866825064553 11.995316457003355)"><path d="M-0.47 -0.87 C-0.28 3.37, 0.13 20.58, 0.24 24.86 M1.49 1.29 C1.64 5.19, -0.13 18.68, -0.44 22.84" stroke="#2b8a3e" stroke-width="1" fill="none"></path></g></g><g stroke-linecap="round"><g transform="translate(745.692856126993 403.10784912109375) rotate(0 0.30485663319439027 12.981361096114824)"><path d="M0.71 -0.52 C0.85 3.43, 1.12 20.81, 0.89 24.85 M-0.37 1.81 C-0.29 6.5, 0.77 22.69, 0.55 26.49" stroke="#2b8a3e" stroke-width="1" fill="none"></path></g></g><g stroke-linecap="round" transform="translate(325.3226168691807 434.36981201171875) rotate(0 166.200927734375 27.656097412109375)"><path d="M0 0 C0 0, 0 0, 0 0 M0 0 C0 0, 0 0, 0 0 M-0.2 5.84 C0.69 5.55, 2.42 4.25, 5.06 0.2 M-0.32 6.67 C1.89 4.46, 3.74 2.16, 5.14 0.7 M-1.23 13.25 C1.88 9.34, 5.08 6.08, 9.22 0.28 M0.1 12.69 C3.62 7.08, 8.09 2.49, 11.1 -0.17 M-1.48 17.53 C3.65 12, 9.36 4.21, 17.61 0.59 M-0.68 19.1 C4.08 14.3, 6.85 10.43, 15.29 -0.04 M1.76 23.2 C6.6 19.18, 11.28 9.33, 21.49 0.76 M0 23.52 C5.63 17.84, 9.99 11.6, 21.3 0.74 M1.1 31.73 C9.13 20.79, 15.25 14.43, 26.06 1.72 M-0.26 29.93 C8.71 19.44, 18.27 9.28, 26.79 -0.61 M0.52 36.72 C8.44 28.24, 15.73 21.54, 32.7 -2.1 M-0.93 36.53 C11.96 22.21, 22.73 9.55, 31.75 0.85 M0.21 41.4 C15.62 27.97, 26.45 10.56, 36.5 2.25 M0.84 41.76 C8.17 33.16, 15.38 24.78, 36.9 -0.62 M1.74 47.75 C7.09 37.82, 15.66 29.8, 42.64 -0.97 M-0.23 48.13 C9.46 36.53, 20.28 26.11, 42.27 0.09 M-0.26 54.06 C11.71 40.95, 24.91 28.13, 48.23 0.78 M0.43 54.47 C17.66 34.03, 36.35 13.96, 47.49 0.5 M2.44 56.87 C17.72 41.06, 33.02 23.15, 54.74 1.09 M2.07 58.51 C21.88 37.25, 40.64 14.79, 52.4 0.11 M6.77 57.83 C29.63 34.59, 46.28 11.19, 57.85 -0.41 M8.06 58.48 C19.21 45.56, 28.94 33.24, 57.28 -0.04 M12.24 56.58 C22.44 43.1, 36.19 30.53, 63.79 -1.29 M14.07 58.7 C33.92 34.16, 53.77 13.09, 63.53 0.18 M18.57 57.61 C29.27 47.34, 37.61 34.65, 67.29 0.64 M18 57.02 C29.86 45.98, 39.9 33.49, 67.84 -0.39 M24.93 58.15 C44.72 34.22, 62.87 11.8, 75.87 0.18 M23.57 57.5 C42.91 37.15, 61.24 14.05, 74.9 -0.73 M30.34 57 C48.94 35.48, 64.02 14.35, 79.78 1.6 M28.98 57.91 C43.78 40.03, 59.73 24.13, 79.57 -0.01 M35.5 59.48 C49.38 41.81, 61.16 26.79, 84.35 -0.49 M35.12 57.32 C47.67 41.82, 62.52 25.29, 85.58 -0.04 M39.21 58.24 C49.98 43.22, 61.34 32.29, 91.87 -0.2 M40.21 57.63 C54.86 40.84, 68.88 25.07, 89.71 0.28 M44.24 58.17 C58.5 45.32, 68.17 28.19, 93.95 0.4 M46.07 57.2 C59.21 40.18, 73.69 24.46, 96.5 0.52 M49.66 57.26 C63.02 46.36, 74.79 29.85, 101.42 0.27 M50.73 58.33 C61.03 44.4, 73.11 32.6, 100.37 0.32 M56.77 59.5 C73.83 34.61, 93.64 13.26, 104.69 0.2 M56.66 56.87 C71.6 41.5, 85.95 22.85, 106.41 -1.13 M61.44 55.7 C76.75 39.04, 91.97 22.31, 111.61 -0.26 M61.44 57.78 C72.86 42.51, 86.1 28.3, 110.48 0.58 M68 56.43 C77.16 45.15, 88.25 31.22, 115.23 -1.25 M65.94 58.68 C77.65 43.21, 89.46 31.3, 115.28 1.32 M72.97 57.61 C86.02 41.32, 99.02 23.32, 122.92 -1.4 M72.4 58.18 C88.29 38.22, 106.42 17.19, 121.82 0.24 M78.18 57.62 C88.19 44.53, 98.67 31.22, 125.53 -0.73 M77.83 57.67 C92.6 40.72, 107.61 23.71, 126.87 -0.4 M83.97 58.48 C93.58 45.13, 105.57 28.75, 133.14 0.95 M81.51 57.14 C95.15 45.01, 107.09 30.05, 133.01 -0.92 M88.85 59.42 C101.16 42.39, 114.58 27.3, 136.9 0.96 M87.06 57.5 C107.73 36.06, 125.58 13.46, 136.82 -0.66 M91.47 57.77 C110.68 35.79, 128.71 16.18, 141.4 -1.43 M92.54 58.16 C110.54 35.82, 130.56 15.05, 143.53 -0.43 M98.88 57.85 C114.44 38.26, 135.21 17.97, 146.58 -0.05 M99.23 58.53 C108.06 45.6, 118.77 34.77, 147.26 1.08 M104.49 59.83 C119.9 37.78, 136.61 22.54, 152.1 -1.06 M103.75 57.66 C113.92 46.51, 124.27 34.54, 153.68 0.83 M108.43 56.63 C117.42 46.29, 130.14 34.75, 159.17 2.03 M108.78 57.73 C127.69 36.9, 147.85 14.36, 158.19 1.02 M115.37 58.74 C126.92 41.22, 138.97 28.3, 162.99 1.19 M113.24 57.7 C131.69 37.49, 150.46 16.71, 164.62 0.64 M118.98 59.16 C134.7 38.9, 149.19 20.43, 170.56 -1.27 M118.99 56.77 C137.8 37.39, 154.97 16.91, 169.43 1.02 M123.75 58.25 C136 46.73, 144.26 33.11, 173.11 0.18 M124.98 58.02 C145.2 34.62, 165.06 12.31, 174.35 -0.59 M129.35 56.55 C140.88 44.06, 151.58 33.6, 179.95 -0.79 M129.98 57.94 C144.15 40.16, 159.08 23.59, 180.65 0.57 M136.57 59.77 C151.39 39.78, 163.2 26.54, 186.83 -1.56 M134.76 58 C146.91 43.86, 160.59 29.92, 185.72 0.25 M139.64 55.57 C158.01 36.52, 175.06 17.16, 189.85 -1.64 M140.73 58.21 C159.4 35.36, 178.29 13.85, 191.36 0.84 M144.11 58.46 C161.21 40.93, 176.44 21.65, 197.81 -1.82 M146.21 58.68 C157.3 44.24, 169.07 28.97, 196.4 -1.11 M151.26 58.68 C163.3 41.54, 175.9 28.8, 202.1 0.73 M151.04 57.19 C166.34 41.62, 179.2 25.28, 200.93 0.66 M155.95 59.1 C172.35 38, 191.73 16.22, 205.05 1.31 M156.83 58.75 C167.25 45.34, 179.94 29.69, 206.94 -0.27 M162.97 56.05 C179.11 38.22, 194.6 17.57, 213.84 0.58 M161.58 57.16 C177.2 40.23, 194.03 20.94, 212.56 0.51 M168.97 56.21 C185.62 34.3, 206.94 12.21, 216.84 1.42 M167.93 58.57 C182.36 40.46, 196.77 23.36, 216.7 -0.18 M170.79 57.51 C183.79 43.67, 196.97 31.32, 221.51 1.84 M171.83 57.04 C187.19 39.95, 202.34 23.01, 223.29 0.5 M179.38 57.97 C194.08 40.6, 208.34 23.79, 226.78 -0.2 M178.7 58.14 C196.83 35.25, 216.97 12.64, 227.91 -1.11 M183.45 57.35 C203.07 35.76, 221.57 11.37, 232.9 -1.86 M183.49 57.19 C196.51 43.67, 209.1 27.38, 234.02 0.44 M186.7 58.26 C205.63 35.62, 227.25 15.19, 237.16 2.16 M188.14 57.13 C203.53 40.48, 217.59 24.16, 238.97 0.04 M192.92 59.29 C212.41 33.01, 233.28 13.34, 243.07 0.78 M193.06 58.33 C212.94 35.62, 232.69 13.04, 243.47 -0.23 M197.75 56.63 C214.4 41.44, 227.87 24.68, 249.51 -0.35 M199.12 56.86 C216.46 37.8, 234.94 14.92, 249.09 0.8 M202.53 56.97 C217.8 42.67, 229.31 28.8, 254.42 -1.23 M203.9 58.11 C213.46 46.57, 225.23 34.9, 254.24 -0.4 M210.68 58.33 C226.73 37.27, 242.26 18.99, 260.73 1.37 M210.34 58.31 C225.01 40.5, 239.24 23.88, 260.38 -0.41 M213.59 58.99 C232.65 37.34, 251.56 18.5, 264.66 -1.21 M214.9 58.1 C225.84 45.21, 236.16 32.75, 264.73 0.67 M218.95 58.3 C235.27 42.44, 249.24 24.31, 269.67 -0.65 M220.34 58.11 C237.07 38.46, 252.68 18.9, 270.42 0.76 M224.69 57.63 C238.37 45.29, 246.74 32.26, 274.79 1.22 M225.78 58.5 C242.11 39.17, 259.21 19.36, 275.21 -0.59 M231.31 57.17 C244.35 41.73, 255.5 29.96, 280.51 1.3 M231.51 58.54 C247.83 37.81, 264.1 19.96, 281.65 -0.69 M235.77 56.86 C249.83 44.48, 260.6 30, 285.15 0.11 M235.09 58.18 C251.79 38.67, 269.81 18.89, 285.79 -0.12 M239.85 57.25 C261.15 36.85, 276.81 15.36, 290.74 -1.36 M242.09 57.57 C256.51 41.5, 271.62 25.37, 291.35 0.86 M248.06 56.34 C262.07 40.26, 276.12 21.2, 295.38 -0.78 M246.25 58.66 C261.76 41.37, 277.15 24.51, 296.43 -0.18 M251.96 58.53 C265.24 42.82, 281.58 24.85, 303.15 -1.55 M252.16 56.78 C270.38 37.32, 288.67 17.8, 301.65 -0.26 M256.1 59.41 C275.2 39.19, 290.53 15.44, 308.44 -0.01 M257.49 58.13 C273.81 39.93, 289.66 21.55, 306.92 0.6 M262.35 58.7 C282.09 37.23, 300.26 16.03, 313.86 -0.48 M263.63 57.43 C275.41 42.3, 288.72 27.05, 313.52 0.91 M267.77 57.09 C282.88 40.99, 295.82 26.38, 318.59 1.53 M267.92 57.42 C278.27 46.23, 288.41 33.05, 318.89 -0.73 M273.02 57.14 C290.69 35.96, 313.12 12.39, 324.28 0.3 M274.28 56.45 C289.3 39.35, 304.17 21.37, 322.76 -0.03 M280.22 56.11 C294.23 36.28, 312.86 18.24, 327.4 0.67 M277.47 58.03 C289.42 45.97, 298.96 33.76, 329.85 0.52 M285.31 58.9 C295.01 43.03, 311.44 26.92, 332.49 -0.28 M283.71 58.4 C301.04 36.89, 319.84 16.71, 333.38 -0.03 M287.95 58.87 C298.88 43.72, 312.29 30.95, 333.22 7.44 M288.92 58.09 C300.25 45.84, 310.14 33.59, 332.54 6.25 M295.21 59.5 C308.1 41.13, 322.38 21.35, 333.37 14.19 M294.72 58.26 C302.42 48.06, 311.14 38.36, 333.69 12.39 M298.75 59.47 C308.55 48.86, 316.99 40.36, 334.87 19.01 M299.9 58.43 C309.55 47.91, 318.44 37.34, 332.77 19.45 M303.98 57.85 C310.83 52.43, 315.91 43.16, 334.11 25.9 M303.91 58.4 C314.24 47.81, 323.29 38.21, 333.88 25.51 M309.74 59.68 C315.77 49.29, 326.75 40.29, 331.8 32.73 M310.87 58.49 C318.54 46.99, 326.17 38.72, 333.49 31.26 M314.23 56.84 C318.83 50.9, 325.44 45.14, 332.72 36.83 M315.77 57.13 C322.35 50.94, 328.89 42.24, 332.48 38.31 M319.41 57 C325.55 52.89, 330.29 47.33, 334.76 44.12 M321.14 58.36 C324.42 54.25, 327.53 50.96, 333.55 43.01 M325.14 57.07 C327.5 56.15, 331.01 53.99, 333.86 50.09 M325.55 57.81 C328.28 54.82, 330.98 52.14, 332.94 49.98" stroke="#ced4da" stroke-width="0.5" fill="none"></path><path d="M-0.36 -0.6 C127.73 -1.93, 258.09 -0.99, 332.39 0.24 M0.47 0.35 C133.25 -0.71, 265.96 -1.13, 331.74 0.64 M333.65 -0.18 C334.57 16.75, 333.18 29.41, 331.55 53.91 M332.38 0.69 C331.48 17.07, 332.56 34.58, 333.03 56.26 M332.22 56.3 C208.91 55.89, 82.04 55.45, 1.34 56.12 M332.06 55.64 C213.69 57.12, 94.76 57.69, -0.56 55.13 M0.33 54.97 C-1.69 42.6, -1.95 26.66, 1.68 0.22 M0.79 56.3 C0.33 36.03, -0.34 15.7, 0.48 -0.53" stroke="#2b8a3e" stroke-width="1" fill="none"></path></g><g stroke-linecap="round" transform="translate(-128.08024567964742 165.5714111328125) rotate(90.16019746693838 166.200927734375 27.656097412109375)"><path d="M0 0 C0 0, 0 0, 0 0 M0 0 C0 0, 0 0, 0 0 M0.09 7.12 C1.72 5.06, 3.53 2.46, 5.02 1.07 M-0.07 6.52 C1.12 4.39, 2.57 2.76, 4.91 0.48 M1.42 12.5 C4.58 7.71, 9.01 3.47, 11.94 1.25 M0.42 11.8 C3.29 7.57, 7.67 2.98, 9.9 0.14 M0.39 17.23 C4.28 12, 10.21 9.38, 13.85 0.58 M0.33 19.18 C4.82 12.72, 8.88 8.36, 15.28 1 M2.02 24.29 C8.68 15.82, 12 8.76, 19.88 1.1 M0.04 24.76 C6.68 16.05, 12.73 8.78, 21.68 0.28 M-1.48 29.82 C6.63 21.81, 13.67 13.75, 26.99 0.72 M0.23 29.88 C8.9 20.02, 17.03 9.91, 26.37 0.91 M-0.03 37.16 C9.03 24.75, 18.18 16.13, 30.78 1.48 M-0.17 35.94 C11.15 23.18, 24.6 8.82, 32.72 -0.91 M-0.23 42.14 C6.78 32.96, 18.24 22.62, 35.66 -1.2 M-0.42 42.09 C10.54 31.72, 21.38 18.57, 36.25 -0.14 M-0.2 50.21 C8.12 37.41, 16.36 26.48, 43.26 -1.69 M-0.5 49.12 C13.77 34.57, 26.44 18.14, 43.23 0.67 M2.17 54.02 C12.71 40.17, 26.71 26.58, 46.3 0.77 M0.9 53.72 C9.91 42.17, 21.85 31.03, 46.96 0.98 M1.67 59.35 C14.46 45.74, 24.99 32.5, 52.93 -1.12 M3.19 57.06 C21.02 35.5, 40.31 15.13, 52.41 -0.26 M8.96 55.94 C26.75 36.75, 44.87 15.61, 56.67 -1.76 M7.38 58.33 C23.21 39.7, 38.69 20.82, 58.41 1.05 M12.36 58.44 C30.33 41.37, 47.25 20.04, 64.72 -1.86 M14.17 58.37 C27.33 42.07, 39.84 27.46, 64.34 -0.35 M19.56 57.16 C35.46 38.39, 52.93 15.79, 67.87 0.52 M17.97 57.17 C38.59 35.28, 57.93 12.28, 68.32 0.53 M24.81 58.07 C36.44 42.9, 52.13 28.76, 72.86 -1.24 M24.41 58.44 C35.42 44.88, 45.01 32.57, 73.91 0.45 M29.33 55.59 C46.99 35.73, 67.83 15.69, 80.27 -1.38 M29.07 57.18 C46.28 39.43, 62.59 18.13, 80.27 -0.48 M35.17 57.51 C49.07 43.39, 60.95 24.61, 84.89 -0.93 M33.63 57.24 C46.33 44.21, 56.92 32.94, 84.88 -1.21 M41.58 57.83 C56.15 37.84, 71.69 21.48, 89.59 1.22 M40.57 56.9 C56.02 39.94, 70.81 20.79, 89.68 -0.22 M46.9 57.69 C57.5 44.03, 66.08 33.96, 93.69 1.12 M45.36 58.41 C57.68 44.7, 70.52 28.37, 95.83 0.03 M48.91 58.17 C61.84 45.47, 69.91 34.47, 98.84 -1.3 M51.17 57.55 C69.65 37.13, 85.17 17.92, 99.82 0.72 M54.75 57.23 C71.44 41.21, 84.7 23.9, 105.41 -1.4 M55.01 57.24 C68.57 44.27, 79.49 30.98, 106.21 0.15 M61.25 58.56 C78.58 41.07, 90.72 25.06, 110.35 -0.89 M60.44 57 C77.06 37.85, 94.59 20.41, 111.8 -0.6 M64.81 56.45 C85.37 39.71, 100.59 18.49, 114.9 1.7 M65.79 58.66 C78.97 41.78, 93.57 27.39, 115.64 0.56 M73.17 57.42 C82.3 44.25, 95.19 29.96, 121.76 0.21 M72.14 58.53 C82.32 45.6, 92.56 32.9, 122.56 0.57 M78.48 57.34 C94.53 38.39, 109.22 20.18, 128.25 1.98 M76.8 57.29 C89.07 46.39, 98.44 32.48, 126.56 1.06 M82.53 58.58 C93.36 47.63, 103.51 31.91, 134.02 1.43 M82.81 57.8 C93.6 45.72, 104.52 34.09, 132.91 0.6 M88.44 59.59 C100.94 40.71, 114.47 25.9, 138.93 0.98 M86.95 57.38 C102.9 39.12, 118.42 21.56, 138.28 0.35 M94.54 59.83 C105.75 45.15, 117.26 28.75, 143.41 -0.11 M91.9 57.4 C103.08 44.27, 114.69 31.12, 143.48 -0.47 M98.73 56.58 C113.15 40.89, 129.09 20.25, 146.36 -0.82 M99 56.84 C115.94 36.05, 134.76 16.73, 147.61 1.06 M104.38 57.88 C117.18 41.37, 134.74 24.08, 153.5 -1.58 M102.35 57.84 C113.82 45.91, 124.2 33.12, 154.76 -0.94 M108.67 59.36 C119.71 43.96, 132.15 30.79, 159.27 0.72 M109.57 57.25 C123.69 41.11, 137.99 23.43, 158.21 0.46 M112.52 57.14 C133.21 39.05, 151.33 14.6, 163.18 1.5 M113.94 58.25 C131.89 37.63, 149.68 17.17, 165.08 0.53 M120.9 56.69 C133.17 37.99, 148.82 22.29, 167.71 1.45 M119.11 57.84 C132.86 43.05, 145.11 27.42, 168.57 0.48 M124.77 57.71 C141 37.13, 161.18 16.08, 174.66 -0.67 M125.28 58.45 C144.31 37.31, 162.66 15.27, 174.61 -1.03 M129.38 59 C145.83 41.34, 160.36 21.43, 179.04 0.9 M129.91 57.48 C146.52 37.92, 164.77 18.74, 180.04 -0.29 M136.23 59.35 C147.57 43.7, 159.57 28.38, 185.45 -0.23 M135.86 56.89 C145.43 47.24, 154.47 35.38, 185.36 -0.98 M139.37 58.41 C156.57 38.86, 170.75 23.04, 189.94 -1.71 M140.12 56.72 C159.84 34.52, 179.02 12.65, 190.81 -0.61 M147.33 57.55 C165.7 34.79, 180.93 14.95, 196.39 0.39 M145.98 58.69 C159.42 43.46, 172.73 27.17, 197.19 -0.98 M151.46 56.74 C159.99 45.78, 171.95 32.96, 202.38 0.52 M151.71 57.75 C162.36 42.99, 175.59 28.66, 201.91 -0.58 M155.81 59.46 C176.61 36.47, 195 15.07, 207.6 0.44 M156.79 57.63 C168.92 44.53, 179.47 30.5, 207.8 -1.06 M161.52 57.49 C176.7 40.8, 190.09 26.2, 211.68 -1.81 M162.52 56.43 C177.61 40.32, 191.38 25.73, 211.21 0.36 M168.7 55.91 C184.44 35.74, 203.9 12.56, 218.56 0.86 M166.3 58.14 C178.9 42.78, 191.56 28.94, 216.75 0.41 M172.77 57.84 C191.32 36.46, 209.59 11.73, 222.43 1.57 M172.22 58.25 C185.27 42.24, 198.81 26.94, 223.44 -0.59 M178.38 57.44 C189.93 41.39, 205.45 27.64, 228.02 0.26 M177.35 57.3 C194.94 37.17, 210.68 19.5, 227.42 -1.28 M183.07 57.43 C197.51 38.25, 216.34 19.8, 232.56 0.63 M183.67 57.15 C198.03 41.34, 212.74 24.04, 234.14 0.44 M186.51 58.27 C203.43 42.36, 216.3 24.49, 237.41 -0.28 M187.62 56.86 C206.89 37.57, 224.77 15.18, 238.38 -0.42 M191.57 59.29 C212.55 36.02, 233.43 12, 245.3 1.04 M193.53 58.44 C208.01 42.44, 222.21 26.11, 243.73 -0.02 M200.08 56.3 C210.35 43.35, 225.74 28.59, 249.43 -0.28 M199.66 57.21 C213.26 41.97, 227.5 25.42, 248.04 0.08 M202.73 58.45 C219.98 38.72, 238.94 20, 253.21 0.12 M204.36 57.34 C216.92 43.71, 229.65 28.43, 255.46 -0.79 M211.39 57.12 C222.68 43.28, 236.36 27.57, 260.13 0.71 M208.82 57.41 C224.39 41.8, 237.92 23.65, 258.65 1.22 M213.02 58.83 C234.92 34.41, 256.79 12.73, 266.15 -1.08 M215.2 57.99 C225.86 44.13, 238.03 30.24, 265.42 -0.04 M222.05 58.02 C230.7 43.03, 246.45 29.71, 269.53 0.06 M219.34 57.17 C234.73 42.22, 247.73 26.98, 270.98 0.92 M226.21 58.05 C241.61 38.91, 255.92 22.84, 275.28 -1.86 M224.94 58.17 C236.26 45.98, 247.87 33.1, 276.55 0.73 M230.98 55.97 C242.86 44.62, 253.71 31.35, 280.95 0.82 M230.27 56.86 C249.28 35.99, 267.41 15.9, 281.63 0.76 M237.38 59.44 C248.62 43.66, 264.14 28.45, 285.09 -1.8 M236.31 57.34 C253.4 38.26, 270.95 18.66, 286.63 0.67 M242.41 55.61 C252.06 45.27, 265.49 30.89, 293.04 -0.24 M241.51 57.5 C260.63 36.88, 277.37 16.04, 291.07 -0.03 M244.91 55.98 C265.83 34.55, 286.66 10.87, 297.38 -0.81 M245.9 58.6 C262.15 39.53, 277.65 22.37, 296.28 -0.42 M253.9 57.29 C270.2 35.86, 287.33 15.84, 303.75 -0.69 M251.83 56.78 C270.52 36.26, 287.42 16.44, 301.58 -0.59 M258.51 58.37 C271.8 41.23, 281.37 27.11, 307.26 0.89 M256.12 58.7 C267.36 45.42, 279.85 32.52, 306.98 -0.09 M264.3 57.04 C283.37 36.37, 300.23 12.65, 314.35 -0.41 M262.8 57.03 C275.94 43.02, 288.91 26.35, 313.32 -0.36 M267.19 58.98 C283.22 40.72, 298.93 20.16, 319.16 -1.24 M267.24 58.06 C283.44 40.29, 300.31 21.47, 319.02 -1.2 M273.79 58.58 C288.09 43.5, 298.85 27.91, 321.41 -1.59 M272.87 57.23 C288.76 40.64, 302.31 23.38, 322.25 0.85 M279.3 55.87 C294.7 40.38, 313.8 18.95, 330.8 -0.04 M277.37 58.75 C298.38 36.04, 318.45 13.41, 329.58 0.02 M283.86 57.32 C296.51 42.35, 310.44 28.74, 332.18 0.02 M283.32 57.05 C299.33 38.88, 316.7 19.83, 333.55 1.65 M290.46 56.79 C303.14 42.4, 316.86 23.27, 334.68 6.89 M288.45 58.49 C299.32 46.69, 308.61 33.33, 332.08 7.53 M292.64 57.09 C305.89 42.05, 317.9 27.33, 332.67 12.18 M293.62 57.54 C306.05 43.86, 317.3 32.1, 333.72 12.11 M299.63 59.17 C306.28 47.15, 316.59 38.5, 333.78 19.04 M300.3 58.68 C312.26 44.27, 325.27 29.2, 334 19.41 M305.55 59.18 C312.67 45.7, 322.49 37.84, 335.24 26.45 M304.04 58.16 C314.62 45.31, 325.92 32.5, 334.1 24.07 M309.08 58.15 C316.16 49.31, 324.44 42.06, 333.71 30.12 M310.54 58.34 C317.38 48.3, 325.22 41.09, 332.96 30.88 M315.37 58.81 C321.16 51.22, 325.31 44.4, 333.06 36.13 M315.75 57.26 C320.54 53.92, 324.48 49.02, 333.4 37.11 M320.41 58.48 C324.99 55.04, 328.26 48.82, 333.45 42.09 M320.67 58.15 C326.52 52.2, 330.64 46.97, 333.49 42.38 M325.3 58.08 C329.16 53.89, 332.12 52.3, 332.81 49.86 M325.61 57.54 C327.22 55.58, 329.22 54.55, 332.56 49.99" stroke="#ced4da" stroke-width="0.5" fill="none"></path><path d="M-0.08 0.39 C114.8 -0.07, 231.02 -0.77, 331.78 -0.36 M-0.1 0.38 C132.47 0.02, 265.05 -0.63, 332.76 -0.39 M332.77 0.33 C332.38 13.16, 331.73 30.37, 333.34 56.65 M331.94 0.33 C332.14 17.75, 332.76 34.9, 332.64 55.89 M333.27 56.01 C218.91 55.93, 106.77 55.55, -0.76 56.08 M332.48 55.9 C262.04 57.31, 191.45 56.36, 0.28 54.75 M0.21 55.22 C-1.26 34.57, -1.61 15.53, -1.5 -1.58 M-0.5 54.81 C-0.62 33.87, 0.68 10.76, 0.16 -0.35" stroke="#2b8a3e" stroke-width="1" fill="none"></path></g><g stroke-linecap="round" transform="translate(935.2905428945711 184.95950317382812) rotate(90.16019746693838 166.200927734375 27.656097412109375)"><path d="M0 0 C0 0, 0 0, 0 0 M0 0 C0 0, 0 0, 0 0 M0 7.06 C0.41 5.76, 1.63 3.5, 5.48 1.01 M-0.65 6.65 C1.32 4.87, 1.97 3.53, 5.02 0.1 M-0.94 13.21 C4.36 9.3, 6.05 5.3, 9.77 -0.53 M-0.14 12.53 C4.46 7.46, 7.93 3.3, 10.05 0.46 M-0.45 16.58 C5.02 11.09, 13.14 7.05, 14.17 -0.36 M0.68 18.6 C4.17 14.03, 8.71 9.88, 16 -0.52 M-0.67 22.25 C9.49 14.71, 16.69 5.54, 22.34 0.94 M1.22 23.09 C7.54 16.96, 13.96 7.4, 20.61 0.28 M1.8 32.05 C8.15 18.69, 19 8.38, 25.17 2.03 M0.79 29.99 C10.76 20.24, 20.37 8.42, 26.68 -0.55 M1.09 37.96 C8.25 24.34, 18.43 13.55, 30.75 -0.49 M0.54 37.04 C10.71 24.08, 20.82 13.2, 31.63 -0.49 M-1.34 43.81 C9.46 31.87, 14.63 23, 37.79 0.95 M0.95 41.53 C9.33 32.13, 17.36 22.02, 37.67 0.5 M0.25 50.64 C10.49 35.07, 25.36 21.61, 43.71 -2.02 M-0.52 48.01 C17.01 30.71, 33.57 9.95, 42.62 -0.66 M-0.69 54.55 C16.7 36.31, 30.3 20.23, 46.31 -0.53 M0.67 54.42 C10.84 40.77, 23.62 29.02, 48.19 -0.63 M1.3 56.85 C14.17 44.46, 25.26 30.32, 51.85 0.58 M3.11 58.58 C21.3 36.33, 38.43 14.65, 52.85 -0.32 M6.5 59.18 C17.69 46.02, 29.1 34.6, 56.7 -0.02 M8.99 57.62 C18.92 44.8, 28.65 32.91, 58.1 0.64 M11.7 56.68 C28.99 42.34, 42.45 26.69, 63.47 0.86 M12.41 57.44 C26.16 43.86, 39.29 28.99, 63.28 -0.73 M19.54 57.05 C30.56 42.92, 42.74 28.17, 70.62 0.18 M19.47 58.06 C34.59 41.3, 48.72 24.07, 67.92 0.73 M25.5 56.67 C39.78 39.64, 53.73 26.78, 72.59 1.68 M23.92 58.16 C37.02 42.9, 51.61 26.32, 74.5 -0.28 M30.05 57.78 C41.75 40.39, 55.24 26.34, 77.41 1.1 M29.98 58.46 C46.32 39.07, 62.11 20.49, 78.83 -0.09 M36.28 57.56 C49.96 42.11, 66.66 24.39, 86.87 -0.79 M34.68 57.16 C54.43 35.51, 72.96 13.51, 84.78 -0.56 M41.98 57.29 C58.18 38.02, 73.52 16.47, 90.1 -0.95 M40.64 57.39 C58.17 37.27, 77.27 15.93, 90.67 0.29 M45.32 59.45 C62.42 38.49, 80.51 20.33, 95.7 -1.06 M44.4 58.66 C64.73 35.66, 84.81 12.91, 96.03 -0.27 M48.94 56.83 C66.5 39.05, 81.51 22.77, 101.4 1.69 M51.24 58.26 C62.75 43.06, 72.43 31.26, 99.94 -0.19 M57.59 57.72 C71.5 38.48, 90.28 16.34, 106.14 -0.33 M55.47 58.74 C66.29 45.05, 76.98 32.88, 105.82 -1.28 M62.25 58.94 C74.59 42.52, 89.63 24.51, 111.73 -0.03 M61.24 57.31 C81.37 35.26, 99.67 12.75, 111.78 0.28 M65.74 59.07 C79.99 40.02, 95.49 22.64, 114.28 2.25 M66.89 57.32 C78.09 44.65, 88.14 31.85, 116.73 0.12 M70.24 56.23 C86.69 40.65, 98.15 27.16, 121.17 0.14 M71.07 58.39 C90.1 35.63, 111.43 12.84, 122 -0.67 M78.13 57.52 C88.82 40.7, 104.74 28.77, 127.88 -1.39 M76.35 58.16 C92.52 39.55, 108.81 21.13, 126.93 0.23 M80.93 56.38 C101.01 37.2, 120.09 14.97, 133.51 -0.19 M82.81 57.94 C97.21 40.73, 110.64 24.94, 133.05 0.45 M86.77 58.41 C105.71 37.87, 121.03 20.84, 138.39 0.23 M88.19 56.88 C98.25 44.99, 109.65 31.91, 138.33 0.47 M94.02 58.61 C105.42 43.07, 117.72 31.74, 144.21 -0.16 M92.21 57.48 C114.16 34.81, 133.68 11.65, 144.06 -1.03 M99.39 58.37 C113.3 38.05, 132.81 21.29, 147.63 -0.83 M97.39 56.93 C107.94 44.98, 119.62 31.45, 149.12 0.33 M103.58 58.72 C122.62 37.77, 137.69 17.81, 152.42 0.45 M103.35 58.64 C120.97 39.15, 136.05 19.46, 154.8 0.05 M107.39 57.36 C120.8 41.24, 137.37 26.55, 159.1 0.78 M109.61 57.6 C128.46 35.3, 148.17 12.15, 159.14 0.17 M113.36 57.83 C127.9 42.64, 142.01 27.63, 165 1.16 M113.95 57.89 C132.8 35.2, 151.99 14.28, 163.71 0.72 M117.87 58.64 C133.77 37.94, 150.59 20.02, 169.98 -0.27 M119.16 58.04 C139.56 35.99, 157.84 13.52, 169.91 1.16 M124.79 58.37 C137.92 42.78, 149.7 30.75, 176.47 0.79 M125.4 58.54 C141.06 38.28, 156.94 20.84, 175.85 -0.18 M129.6 56.79 C149.57 35.06, 170.48 12.97, 179.15 0.01 M130.99 57.22 C143.14 40.47, 157.53 25.42, 180.59 -0.66 M137 56.05 C150.37 40.62, 168.03 19.83, 185.05 1.49 M134.73 58.75 C147.8 44.11, 158.32 30.73, 184.99 0.07 M141.05 57.71 C159.88 33.47, 181.67 10.63, 191.18 -1.08 M140.72 57.98 C154.97 43, 168.22 26.93, 190.01 -0.42 M146.79 55.94 C157.79 43.48, 172.22 25.87, 196.65 0.71 M146.65 57.51 C158.41 43.44, 170.2 30.7, 195.52 0.01 M150.38 58.6 C171.03 34.53, 189.64 15.19, 200.3 -0.93 M150.62 56.99 C169.97 36.65, 188.23 15.34, 200.63 -0.4 M156.68 56.4 C173.2 38.11, 191.49 18.24, 208.85 -0.79 M155.49 58.67 C176.26 36.65, 195.74 14.83, 206.49 0.04 M163.43 55.97 C171.99 45.02, 184.89 33.7, 210.46 0.39 M161.64 56.76 C172.16 44.72, 181.3 35, 212.59 -0.04 M166.84 57.08 C185.02 36.2, 207.58 12.67, 218.94 1.08 M167.29 56.91 C185.51 36.38, 203.96 14.8, 217.61 0.37 M173.73 57.66 C183.98 42.27, 196.34 29.33, 223.29 0.1 M173.34 57.65 C189.65 37.5, 205.34 19.79, 221.69 0.07 M179.15 58.99 C196.26 37.08, 218.11 14.74, 227.88 -2.3 M177.68 57.78 C187.63 44.67, 198.59 32.17, 227.26 -0.9 M181.85 59.56 C195.63 41.52, 210.87 25.35, 234.08 0.75 M183.32 58.61 C200.18 39.44, 216.47 18.75, 233.36 0.18 M189.17 56.42 C206.45 40.01, 222.35 20.38, 239.68 0.54 M188.01 57.63 C208.27 35.65, 226.7 11.72, 237.8 0.9 M193.99 58.61 C211.35 35.29, 230.92 11.83, 243.84 -1.79 M193.8 58.2 C211.51 37.37, 230.29 15.52, 244.72 -0.62 M198.15 56.98 C216.07 40.17, 230.46 18.85, 247.99 2.1 M199.23 57.7 C212.97 42.18, 226.77 25.87, 248.22 0.02 M202.1 57.34 C220.85 39, 236.82 24.4, 255.27 1.64 M203.66 57.04 C221.43 38.5, 239.31 18.81, 254.51 -0.4 M209.02 57.59 C224.76 40.78, 242.34 22.06, 260.18 0.47 M210 58.03 C225.33 39.25, 242.09 20.27, 260.2 0.82 M214.46 56.83 C227.46 40.58, 240.9 24.54, 264.72 1.54 M215.12 58.88 C224.08 46.84, 234.38 34.27, 265.15 -0.36 M218.42 56.49 C235.44 42.5, 250.7 25.28, 271.97 0.29 M220.59 57.55 C233.68 43.66, 246.13 28.3, 270.74 0.77 M227.03 57.46 C241.66 40.6, 256.83 21.94, 274.26 1.71 M225.05 57.29 C238.03 44.5, 249.2 30.33, 276.72 -0.9 M232.64 57.22 C248.42 36.72, 266.87 16.74, 278.77 1.51 M230.96 57.99 C245.92 41.31, 261.08 23.65, 281.49 1.15 M235.47 58.95 C247.81 44.23, 258.31 30.57, 287.65 -0.76 M234.97 57.69 C253.56 37.18, 273.17 16.14, 286.94 0.47 M239.7 56.65 C254.48 44.47, 266.02 27.51, 291.67 -0.6 M240.7 57.95 C259.64 37.17, 278.1 16.19, 290.74 1.11 M247.12 56.3 C263.53 37.75, 282.86 18.58, 298.32 0.57 M247.06 57.35 C257.59 45.5, 268.45 33.34, 297.19 -0.95 M253.27 56.95 C264.02 44.57, 272.13 33.73, 301.45 0.54 M253.07 56.87 C264.97 41.73, 278.09 26.95, 301.47 -0.37 M257.02 59.85 C267.15 46.9, 280.59 32.11, 309.39 1.42 M256.16 57.38 C271.98 40.93, 284.76 25.8, 308.51 -1 M264.74 57.6 C278.2 43.03, 291.25 24.44, 314.58 -1.19 M263 57.02 C274.14 44.64, 285.25 31.31, 313.29 -0.46 M267.88 59.24 C282.49 39.31, 297.85 21.07, 317.67 -1.14 M267.77 58.72 C287.06 35.17, 306.18 14.4, 317.61 -0.68 M275.15 59.4 C284.13 42.54, 296.73 30.53, 325.21 -0.57 M273.04 57.54 C285.38 42.57, 299.01 28.78, 322.47 -0.49 M278.1 59.42 C290.06 44.07, 305.55 27.31, 329.67 -0.77 M278.02 58.19 C297.36 37.19, 315.22 15.23, 328.82 -0.15 M283.27 56.47 C296.94 45.7, 306.96 30.3, 334.52 -0.33 M283.42 58.39 C301.18 35.55, 320.02 16.69, 333.28 0.81 M289.79 56.67 C300.54 43.74, 317.3 25.59, 331.01 5.76 M289.73 58.41 C297.69 47.36, 307.54 35.66, 333.61 6.82 M292.87 56.97 C308.78 40.14, 325.23 24.68, 334.88 13.91 M293.38 57.14 C306.61 43.95, 316.63 30.28, 334.14 12.36 M300.71 58.55 C308.78 48.13, 315.17 40.35, 334.18 20.41 M300.36 57.86 C312.33 44.53, 324.38 30.62, 332.25 18.75 M303.39 56.14 C310.12 50.12, 319.01 43.89, 333.32 25.99 M303.77 57.93 C312.85 50.18, 320.04 41.63, 333.11 25.05 M308.34 55.96 C318.28 50.07, 325.74 39.87, 334.69 32.96 M310.02 56.89 C318.18 48.22, 325.41 39.14, 334 31.49 M313.98 56.78 C323.55 51.01, 326.81 44.73, 334.11 39.11 M315.11 58.02 C321.44 50.56, 327.81 44.66, 332.45 37.67 M321.78 59.03 C323.54 54.33, 326.56 52.25, 333.76 43.03 M321.45 57.66 C325.79 52.05, 330.46 46.37, 333.83 44.2 M326.02 58.15 C328.09 55.43, 328.8 53.7, 332.02 49.61 M326.09 58.42 C327.93 55.1, 330.44 52.63, 333.05 50.21" stroke="#ced4da" stroke-width="0.5" fill="none"></path><path d="M-0.19 -0.64 C92.99 -1.1, 184.9 0.18, 331.09 -0.84 M0.39 -0.38 C88.83 1.78, 177.02 1.38, 332.09 0.47 M330.77 -1.39 C333.21 12.33, 331.86 24.11, 332.11 53.35 M333.35 -0.14 C331.65 17.85, 333.38 34.71, 332.22 55.33 M331.46 56.09 C263.41 56.64, 194.77 56.56, -1.27 56.6 M332.57 54.79 C260.14 54.91, 188.97 55.07, -0.09 55.14 M-1.07 55.37 C-1.26 40.11, 1.85 26.98, 0.01 0.26 M-0.74 54.73 C-0.37 39.81, 0.69 23.33, -0.36 0.71" stroke="#2b8a3e" stroke-width="1" fill="none"></path></g><g transform="translate(330.3226168691807 449.5259094238281) rotate(0 161 12.5)"><text x="161" y="18" font-family="Virgil, Segoe UI Emoji" font-size="20px" fill="#2b8a3e" text-anchor="middle" style="white-space: pre;" direction="ltr">Production planning</text></g><g transform="translate(-123.08024567964742 180.72750854492188) rotate(90.16019746693838 161 12.5)"><text x="161" y="18" font-family="Virgil, Segoe UI Emoji" font-size="20px" fill="#2b8a3e" text-anchor="middle" style="white-space: pre;" direction="ltr">Purchasing</text></g><g transform="translate(940.2905428945711 200.1156005859375) rotate(90.16019746693838 161 12.5)"><text x="161" y="18" font-family="Virgil, Segoe UI Emoji" font-size="20px" fill="#2b8a3e" text-anchor="middle" style="white-space: pre;" direction="ltr">Logistics</text></g></svg>